<svg version="1.1" id="Layer_1" xmlns="http://www.w3.org/2000/svg" xmlns:xlink="http://www.w3.org/1999/xlink" x="0px" y="0px"
	 width="100%" viewBox="0 0 672 672" enable-background="new 0 0 672 672" xml:space="preserve">
<path fill="#000000" opacity="1.000000" stroke="none" 
	d="
M555.589966,332.482849 
	C552.263367,335.769714 552.973145,338.219360 555.514954,341.591980 
	C578.018555,371.451813 599.008667,402.243286 612.979126,437.256134 
	C618.195679,450.329773 622.366150,463.782745 622.919617,477.793060 
	C623.965942,504.278107 613.476807,519.053711 590.688049,530.234253 
	C576.886780,537.005310 561.901367,539.314209 546.714417,540.318298 
	C520.794800,542.031799 495.800903,536.458679 470.854706,530.527527 
	C461.348114,528.267212 451.804901,526.160828 441.999725,523.920654 
	C438.622314,538.562622 433.761780,552.361633 428.509338,565.993225 
	C418.662933,591.547424 405.228210,615.045837 386.495972,635.204468 
	C373.816986,648.848999 358.304321,657.799194 339.506012,659.015137 
	C323.849487,660.027832 309.816101,654.889343 297.535950,644.752747 
	C281.536591,631.546204 270.366974,614.748718 260.209442,597.001526 
	C247.764969,575.258667 239.954514,551.798950 233.532242,527.770203 
	C233.193146,526.501465 232.709152,525.271484 232.150864,523.598694 
	C220.343414,526.343384 208.724319,529.000732 197.126862,531.749268 
	C174.236313,537.174255 151.173676,541.601501 127.520691,540.240540 
	C109.615036,539.210205 92.079735,535.811890 76.477501,526.334290 
	C58.839737,515.620361 51.263393,499.511414 51.422855,478.967682 
	C51.602585,455.812195 60.840973,435.584106 70.597778,415.492462 
	C83.905228,388.089203 101.334808,363.295319 119.917290,339.274811 
	C120.416489,338.629486 120.876900,337.954193 121.568062,336.998962 
	C110.339890,322.063080 99.789536,306.704742 89.874222,290.932709 
	C74.551949,266.559998 61.452972,241.186935 56.236580,212.462875 
	C55.940197,210.830826 55.753189,209.175629 55.586037,207.524033 
	C55.188938,203.600449 53.785725,200.573318 50.479202,197.845779 
	C38.643044,188.082047 34.292114,169.017929 39.933407,153.942154 
	C45.332214,139.514404 60.676723,128.840866 75.743416,128.603134 
	C84.416267,128.466309 92.750549,129.057510 99.813103,134.814682 
	C101.314781,136.038803 102.624802,135.291031 103.983032,134.694489 
	C112.533813,130.939026 121.647621,130.164856 130.799957,129.696167 
	C156.669083,128.371399 181.850082,132.570374 206.790527,139.009155 
	C215.156021,141.168869 223.451035,143.510101 231.971252,146.578171 
	C234.804153,140.600266 235.710007,134.332977 237.504166,128.374619 
	C247.665527,94.628784 262.798218,63.563633 286.653809,37.245174 
	C297.146149,25.669598 309.386292,16.770294 325.199677,13.754456 
	C346.024506,9.782865 364.261078,15.283705 379.714142,29.356995 
	C397.097229,45.187950 409.166718,64.925880 419.362061,85.895790 
	C428.268616,104.214912 435.468170,123.166557 440.636078,142.880905 
	C440.923798,143.978424 441.439240,145.016266 441.940552,146.320969 
	C452.198395,143.492142 462.240662,140.619690 472.338715,137.958939 
	C495.116425,131.957199 518.236511,128.288620 541.855591,128.836655 
	C558.914612,129.232498 575.862183,130.940460 591.436279,138.626816 
	C614.672791,150.094818 627.199463,169.162521 622.070923,197.183182 
	C614.808472,236.863373 597.481262,271.887787 574.976440,304.756439 
	C568.672241,313.963867 562.194641,323.052582 555.589966,332.482849 
M192.848846,409.674896 
	C198.447281,421.130524 207.442825,429.360199 217.906281,436.248383 
	C222.480621,439.259674 227.667770,441.759338 230.634918,446.543793 
	C236.812103,456.504211 245.932678,463.085205 255.480530,469.265839 
	C259.664490,471.974243 263.894104,474.612183 268.102997,477.282104 
	C259.250336,478.134308 253.464127,472.270630 245.858368,467.131378 
	C247.868073,475.912445 247.049942,483.452637 249.994919,490.611816 
	C254.441849,488.912872 258.382050,487.566742 262.190979,485.917419 
	C268.996918,482.970215 276.783905,482.098114 282.292084,476.359741 
	C283.947662,474.635040 285.344940,476.170166 286.606873,477.194031 
	C290.997070,480.755951 295.093781,484.699219 300.326813,487.116608 
	C305.507874,489.510010 310.632568,492.025391 315.793610,494.492767 
	C315.123108,495.764709 314.125732,495.960815 313.204376,496.338562 
	C295.750183,503.494904 277.151794,506.983521 259.365295,513.094360 
	C255.863464,514.297485 255.109558,515.561523 256.080994,519.164062 
	C260.599670,535.921143 266.502594,552.175293 273.395020,568.069519 
	C282.022156,587.964111 293.297485,606.153625 309.024475,621.300842 
	C324.872711,636.564819 347.578613,637.103088 364.191193,622.757629 
	C370.025543,617.719421 374.966248,611.894592 379.520569,605.700562 
	C398.726410,579.580261 408.556732,549.356934 417.717010,518.820312 
	C418.764069,515.329895 417.308350,514.192322 414.293945,513.142151 
	C401.396240,508.648743 388.221405,505.115723 375.113953,501.331818 
	C368.899628,499.537933 362.876526,497.081818 356.256378,494.745605 
	C357.436310,493.677917 357.743286,493.211853 358.168304,493.043182 
	C368.161407,489.077789 377.684174,484.418243 384.677094,475.816742 
	C386.464478,473.618286 388.410858,474.410248 390.396790,475.755096 
	C400.314972,482.471619 411.856567,485.543182 422.742432,490.089691 
	C424.955292,491.013855 426.166870,490.427094 426.688354,488.014862 
	C428.122345,481.381195 429.055634,474.715546 428.772095,467.486359 
	C421.189850,470.303619 414.978058,475.950592 406.743591,475.634155 
	C408.764587,473.962982 411.046967,472.962555 413.220459,471.764679 
	C424.474701,465.561951 436.222961,459.521454 443.708740,448.876404 
	C448.721100,441.748627 454.880707,436.323120 461.139679,430.648041 
	C473.864441,419.110291 483.874420,405.911835 485.866486,388.032593 
	C486.167908,385.327148 486.453674,382.358337 488.500916,380.101440 
	C500.058563,367.360046 509.640442,353.100647 519.919617,339.373291 
	C521.533936,337.217529 521.635010,335.958130 520.035461,333.814606 
	C514.053528,325.798218 507.929474,317.898224 501.355042,310.364716 
	C497.144318,305.539703 493.705505,300.374054 491.665771,294.220367 
	C489.642395,288.116089 486.217590,282.811371 481.118774,278.724854 
	C476.959839,275.391632 473.103210,271.546814 468.562897,268.856506 
	C462.371613,265.187866 460.667755,259.897339 460.894592,253.339813 
	C460.946259,251.845154 460.769928,250.343750 460.732117,248.844604 
	C460.591156,243.256714 458.622498,238.393875 454.643829,234.492386 
	C442.933075,223.008850 429.283752,214.572845 413.771881,209.284790 
	C406.177429,206.695786 401.436432,201.032959 397.205933,194.799225 
	C395.897888,192.871796 396.105865,190.425461 396.833405,188.031357 
	C398.870483,181.327927 398.776398,174.447678 396.666473,167.882370 
	C395.341949,163.760971 396.789642,162.063416 400.150360,160.587646 
	C404.743073,158.570892 409.502319,157.070801 414.354706,155.918304 
	C417.375092,155.200928 417.949402,153.881332 417.086639,150.929230 
	C409.865784,126.221603 400.576538,102.368782 387.688019,80.038239 
	C380.834106,68.163155 372.888458,57.091980 362.246704,48.165897 
	C354.053070,41.293236 344.855408,38.212795 334.104156,38.994987 
	C318.393402,40.137989 307.543915,49.205803 298.692535,60.869221 
	C281.809631,83.115753 270.678070,108.419746 261.357849,134.553726 
	C259.094788,140.899353 257.468292,147.471985 255.459442,154.242432 
	C262.892487,156.381363 269.775604,158.285233 276.365692,161.059647 
	C280.323853,162.725983 282.264069,164.709152 279.826172,169.381699 
	C276.414246,175.921051 274.946014,183.129669 274.300537,190.489899 
	C273.581818,198.685135 270.179291,204.449020 261.417755,206.616394 
	C247.917664,209.955948 236.483124,217.390930 225.632004,225.884964 
	C219.429306,230.740326 215.617386,236.995117 213.621918,244.386429 
	C212.238693,249.509979 211.088333,254.754364 210.519760,260.018829 
	C210.161392,263.336731 208.601151,264.751251 205.979874,266.381134 
	C191.784103,275.207977 179.763794,285.914612 176.137741,303.342163 
	C175.651276,305.680176 174.309036,307.555603 172.683975,309.306335 
	C165.540771,317.002045 158.897659,325.115295 152.556839,333.485779 
	C150.929489,335.634033 150.511307,337.424103 152.336151,339.685577 
	C161.846115,351.471191 169.748611,364.547089 180.708588,375.162231 
	C182.875076,377.260529 184.011505,379.655029 184.352966,382.566498 
	C185.445633,391.883514 187.405029,400.939575 192.848846,409.674896 
M474.654633,162.283707 
	C467.463501,164.360687 460.292511,166.511398 453.072174,168.481293 
	C449.820679,169.368378 449.196564,170.997269 449.729401,174.332993 
	C451.507935,185.467712 454.174713,196.572418 453.268463,207.950912 
	C452.772797,214.174042 455.440521,218.491653 459.942230,222.130737 
	C468.536743,229.078369 475.885986,237.274918 482.966034,245.668976 
	C501.850494,268.058044 519.219482,291.654938 537.585449,314.721497 
	C538.039246,314.298615 538.626892,313.943054 538.948730,313.423035 
	C548.497681,297.992798 559.934875,283.786469 568.779785,267.914673 
	C582.041443,244.117081 593.558533,219.707733 596.095459,191.956284 
	C597.354004,178.188248 592.883484,169.044800 580.184753,162.123840 
	C567.321655,155.113312 553.180115,153.968918 539.049072,153.495575 
	C517.420776,152.771103 496.381042,157.173294 474.654633,162.283707 
M596.143250,468.209473 
	C595.440613,463.607544 594.665039,459.039307 593.149231,454.597382 
	C581.250793,419.729523 560.904541,389.806824 538.513306,361.077057 
	C537.914978,360.309418 537.205566,359.515137 535.473938,359.857697 
	C534.384277,361.185608 532.973938,362.797943 531.679443,364.498505 
	C521.397827,378.005737 511.425690,391.760620 500.800385,404.991211 
	C486.968842,422.214233 474.770233,440.884399 457.481110,455.130829 
	C456.124329,456.248840 455.369720,457.658630 455.372925,459.458954 
	C455.394318,471.521179 452.482605,483.170166 450.086151,494.860901 
	C449.308716,498.653595 450.387329,499.909851 453.761719,500.825775 
	C465.477234,504.005859 477.091339,507.563629 488.993561,510.030243 
	C512.345520,514.869751 535.772217,518.737915 559.690186,514.627502 
	C567.108582,513.352600 574.238708,511.000519 580.697449,507.064209 
	C595.158142,498.251038 600.104675,485.418823 596.143250,468.209473 
M123.961830,375.420471 
	C115.726433,386.740112 108.447166,398.677368 101.216927,410.645844 
	C91.176323,427.266418 83.093178,444.773743 78.936348,463.791901 
	C76.691803,474.061066 75.765610,484.570923 81.438904,494.382202 
	C87.369835,504.639008 96.986984,509.593475 107.841568,512.588257 
	C125.844193,517.555237 144.140884,516.675964 162.318161,514.174805 
	C182.258255,511.430939 201.746628,506.393250 221.157150,501.086975 
	C224.630936,500.137329 225.688507,499.144196 224.796036,495.370911 
	C222.123886,484.073242 219.061218,472.790375 219.625900,460.988953 
	C219.717300,459.078766 219.380005,457.457794 217.497070,456.313751 
	C210.543259,452.088623 205.495285,445.800568 200.298248,439.765106 
	C179.434311,415.535217 160.286942,389.937927 140.781326,364.626984 
	C139.414536,362.853394 138.310806,360.746277 135.955063,359.613495 
	C131.376495,364.334290 128.241562,369.875061 123.961830,375.420471 
M223.772537,169.905624 
	C222.387253,169.348572 221.025681,168.721161 219.613113,168.244995 
	C196.782516,160.548950 173.162842,156.692474 149.287033,154.513245 
	C139.725052,153.640518 130.034515,153.886612 120.458313,155.872849 
	C115.955078,156.806885 114.687973,159.131683 115.418106,163.195526 
	C116.038689,166.649673 116.536613,170.064011 115.742752,173.586029 
	C112.009476,190.148941 102.193214,201.186905 85.770645,205.667740 
	C81.240189,206.903885 80.673981,208.912567 81.788910,212.697006 
	C83.245590,217.641479 84.521553,222.639694 86.008842,227.574539 
	C93.322762,251.842285 107.121193,272.693604 120.959930,293.498749 
	C125.620728,300.505798 130.679672,307.248016 135.753723,314.388611 
	C136.843063,313.243896 137.613968,312.617157 138.159439,311.833557 
	C149.202454,295.968719 161.335190,280.957367 173.698334,266.115509 
	C187.846680,249.130539 200.451889,230.753830 218.302765,217.142075 
	C220.183945,215.707626 220.950623,213.779541 220.484985,211.411789 
	C219.300812,205.390533 220.630066,199.509018 221.402344,193.580612 
	C222.404358,185.888443 225.208252,178.418457 223.772537,169.905624 
M72.327065,148.324265 
	C64.061340,149.551682 55.869392,156.105438 58.060272,161.996414 
	C60.275837,167.953751 59.121998,173.739532 60.755440,179.239792 
	C62.790100,186.091095 72.132317,189.394379 80.610741,186.851562 
	C87.136436,184.894394 91.274567,180.551971 93.202988,173.922409 
	C95.175552,167.141022 92.729828,161.122910 88.109306,157.210892 
	C83.809845,153.570724 77.640701,152.141037 72.327065,148.324265 
M248.287643,198.307861 
	C254.306168,193.860199 260.324707,189.412521 266.938904,184.524658 
	C260.770935,181.505829 255.221176,180.281540 249.474731,178.896973 
	C247.349747,184.927383 246.478409,190.811234 245.456497,196.648254 
	C245.190933,198.164993 245.778275,199.357346 248.287643,198.307861 
M409.925171,183.745544 
	C413.695953,191.502701 422.154205,193.596588 428.500183,200.120331 
	C427.926880,192.868393 427.277954,187.036209 426.080750,181.256012 
	C425.558807,178.735809 424.260315,177.855255 421.854004,178.791061 
	C418.016663,180.283432 413.879761,181.008270 409.925171,183.745544 
z"/>
<path fill="#000000" opacity="1.000000" stroke="none" 
	d="
M463.349792,77.383987 
	C464.706757,68.492935 470.865173,62.398262 477.613403,62.968773 
	C484.603058,63.559689 491.089233,70.976280 491.267456,78.581497 
	C491.451447,86.431473 485.217224,94.041901 477.898254,94.901894 
	C472.030487,95.591370 466.181946,91.141846 464.070526,84.154755 
	C463.455536,82.119637 462.843506,79.988167 463.349792,77.383987 
z"/>
<path fill="#000000" opacity="1.000000" stroke="none" 
	d="
M191.052841,575.544006 
	C197.754333,574.036804 203.047745,575.960999 206.234833,580.784180 
	C210.406876,587.097839 210.395630,593.720947 206.202454,599.893372 
	C202.897690,604.758057 198.172729,606.484009 191.747452,605.173462 
	C183.022934,603.393921 178.296066,590.490417 183.419693,582.314758 
	C185.211746,579.455139 187.571533,577.143127 191.052841,575.544006 
z"/>
<path fill="#000000" opacity="1.000000" stroke="none" 
	d="
M474.593292,573.865356 
	C484.595276,573.496155 490.005737,577.660278 491.236481,586.277771 
	C492.313904,593.821716 487.288055,601.675842 480.126587,603.639832 
	C470.374512,606.314209 461.363892,596.228882 464.159546,585.623474 
	C465.592194,580.188538 468.824280,576.106079 474.593292,573.865356 
z"/>
<path fill="#000000" opacity="1.000000" stroke="none" 
	d="
M181.934448,84.320541 
	C181.633102,80.590569 181.250610,77.241287 182.092697,73.994751 
	C183.895523,67.044304 190.402374,62.710831 196.618759,64.154716 
	C204.556046,65.998306 209.633652,73.855629 208.118378,81.949829 
	C206.712448,89.460129 201.982071,94.408714 195.664108,94.978645 
	C189.758911,95.511353 185.043365,91.967628 181.934448,84.320541 
z"/>
<path fill="#000000" opacity="1.000000" stroke="none" 
	d="
M48.055344,354.313232 
	C39.339100,353.333374 34.169525,346.788147 34.687977,337.929230 
	C35.153706,329.971283 40.881340,324.486267 48.527451,324.675995 
	C56.134266,324.864746 62.090191,330.703918 62.322098,338.200256 
	C62.608391,347.454590 57.306648,353.629333 48.055344,354.313232 
z"/>
<path fill="#000000" opacity="1.000000" stroke="none" 
	d="
M633.644287,331.641357 
	C635.996521,336.348694 636.637024,340.830414 634.518555,345.407349 
	C631.356323,352.239532 624.228455,355.346008 617.486206,352.891846 
	C611.591187,350.746063 607.458984,342.418915 609.051331,335.902496 
	C610.422546,330.290375 613.513245,326.040802 619.376404,324.934570 
	C625.331482,323.811005 630.138000,326.129120 633.644287,331.641357 
z"/>
<path fill="#000000" opacity="1.000000" stroke="none" 
	d="
M384.860229,127.834808 
	C387.831543,129.731583 387.712738,132.691483 388.127899,135.183304 
	C391.092438,152.976852 392.590240,170.963654 389.838684,188.816132 
	C388.153351,199.750900 382.332977,209.394226 374.978546,217.766998 
	C372.935059,220.093460 371.713501,221.734436 374.077393,224.467804 
	C376.180756,226.899933 377.499359,229.246017 381.676788,226.863678 
	C388.799683,222.801514 396.902649,223.339218 404.568909,225.000748 
	C425.615448,229.562210 439.603363,241.873322 444.767303,263.280853 
	C444.884338,263.765900 445.215729,264.282654 445.128510,264.721283 
	C443.343567,273.695892 449.193451,276.544189 455.773895,280.780792 
	C481.221527,297.164276 486.034546,324.171265 470.720551,348.902802 
	C467.264618,354.484070 465.720978,358.907440 467.660767,365.593170 
	C476.234100,395.142487 453.177399,423.025024 431.564087,426.309357 
	C429.309448,426.651978 428.675995,427.978210 427.972504,429.811523 
	C420.165375,450.156677 401.935944,460.265503 380.597809,455.959991 
	C378.190796,455.474335 377.048553,455.975006 375.691284,457.892487 
	C355.936401,485.801819 316.597321,486.916595 295.186615,460.146057 
	C293.249451,457.723938 291.704742,456.645508 288.236664,457.097595 
	C269.515045,459.537994 251.706833,448.992401 244.638687,431.535797 
	C243.491180,428.701752 242.184937,427.179810 238.941711,427.177368 
	C237.031967,427.175934 234.932343,426.498627 233.243622,425.547424 
	C218.820358,417.423126 207.584015,406.221039 202.854996,390.072113 
	C200.118057,380.725891 200.314728,370.888428 205.079224,361.878510 
	C206.907455,358.421234 206.730286,355.901428 204.020447,352.985016 
	C181.315887,328.549622 195.057770,287.632782 221.883820,277.370941 
	C226.546448,275.587341 226.079529,272.538239 226.352859,268.789917 
	C228.039612,245.659286 242.759384,229.638962 265.672150,225.709259 
	C273.588745,224.351486 281.531464,223.624146 289.345703,226.345764 
	C291.159698,226.977554 292.556915,226.695786 293.729248,225.122253 
	C295.130646,223.241272 293.963379,221.938385 292.701355,220.835648 
	C286.199951,215.154861 284.865448,207.553116 284.792725,199.544754 
	C284.523285,169.876495 301.904419,145.447205 330.601593,134.719742 
	C343.066040,130.060303 355.980774,128.088913 369.170532,127.732201 
	C374.260925,127.594528 379.371582,125.437065 384.860229,127.834808 
M334.732178,396.570709 
	C346.993042,396.286346 357.075195,391.115112 364.508942,381.694885 
	C374.011780,369.652618 375.186127,355.505127 372.530548,340.920044 
	C368.512177,318.850494 347.662933,304.781952 325.768829,309.053131 
	C321.820526,309.823364 318.082489,310.742310 314.678375,313.136871 
	C302.635071,321.608490 298.716614,333.949768 298.153107,347.750702 
	C297.151184,372.288269 311.473145,391.649872 334.732178,396.570709 
M304.406769,267.989258 
	C305.935822,274.091553 309.238586,279.209686 312.865601,284.273926 
	C315.995087,288.643555 319.701935,290.151550 324.847351,289.003937 
	C332.788391,287.232788 340.654083,287.157440 348.370850,290.318756 
	C350.717438,291.280121 352.878906,290.752655 354.552246,288.521332 
	C355.945190,286.663940 357.543243,284.942871 359.177460,283.286743 
	C373.096222,269.181244 374.739105,237.702423 345.425415,230.748230 
	C344.186951,230.454422 343.110443,229.486847 341.952240,228.844360 
	C334.680664,224.810516 317.325165,227.449387 312.270966,234.057175 
	C304.828003,243.787903 300.857605,254.671448 304.406769,267.989258 
M321.929108,449.505005 
	C325.882568,450.774536 329.860718,451.972778 333.783356,453.331299 
	C338.883026,455.097473 344.060822,456.823914 349.260651,454.167755 
	C367.608124,444.795593 369.067139,431.793243 356.579224,416.157867 
	C354.426788,413.462921 351.685120,412.579346 348.141998,413.984863 
	C340.429230,417.044373 332.528870,416.858368 324.670898,414.450836 
	C314.699280,411.395691 314.508484,411.416534 309.456604,420.859650 
	C308.441956,422.756317 307.437866,424.733215 306.898773,426.795929 
	C305.207336,433.267426 306.702454,439.029480 310.167206,444.823181 
	C312.977905,449.523163 316.834595,449.429413 321.929108,449.505005 
M373.788513,290.181610 
	C372.922638,291.772644 370.327759,292.492310 371.466309,295.667175 
	C375.391632,293.192810 379.514526,296.135986 383.294678,295.203369 
	C392.371613,292.963928 400.756714,294.397949 408.996948,298.222412 
	C410.839203,299.077484 412.551758,299.569489 414.577332,298.124054 
	C421.216888,293.386078 424.142242,284.776917 421.648590,276.995453 
	C420.432404,273.200226 419.393890,269.367310 418.765594,265.386963 
	C417.839813,259.521942 415.714050,254.624207 408.553528,253.727570 
	C405.019714,253.285095 401.298950,251.940262 401.592712,246.865753 
	C401.694763,245.102448 400.087708,244.397949 398.449860,244.323837 
	C396.456177,244.233643 394.430267,244.034744 392.468567,244.281906 
	C390.376068,244.545578 386.855682,243.157425 386.684570,246.320114 
	C386.528595,249.202682 386.019440,253.003418 389.555542,254.965317 
	C386.042175,260.360107 386.271942,266.991241 383.633331,272.721100 
	C380.917145,278.619385 378.731384,284.753784 373.788513,290.181610 
M390.401672,336.383972 
	C393.432678,346.969360 391.350616,357.421875 389.412476,367.830750 
	C388.169525,374.506104 389.595520,376.022339 396.223450,374.287567 
	C396.544891,374.203461 396.860687,374.091522 397.170807,373.971222 
	C418.710114,365.617889 431.099426,341.681610 408.917175,319.408203 
	C402.123413,312.586517 394.074921,311.196930 384.993439,313.231598 
	C381.677765,313.974487 380.530334,315.218231 382.677460,318.274200 
	C386.365601,323.523560 388.564789,329.433289 390.401672,336.383972 
M329.081299,156.574188 
	C304.964294,168.395309 297.967072,197.123764 306.851868,208.650894 
	C307.416412,200.952118 308.269989,199.540756 315.343353,195.238892 
	C317.731079,193.786743 318.537842,191.717941 317.493042,189.295532 
	C314.942810,183.382874 317.538788,177.806717 319.914612,173.182953 
	C325.330811,162.642059 344.843903,159.083923 354.691284,165.924408 
	C356.609314,167.256760 357.510254,169.040039 356.569214,171.057144 
	C353.785339,177.024155 352.761414,183.933289 347.369598,188.538406 
	C344.873383,190.670441 344.914825,192.985107 346.125153,196.039764 
	C348.270691,201.454712 353.589783,203.304199 357.239990,207.604065 
	C364.649780,197.787201 369.725861,187.700928 369.400299,174.699677 
	C367.223236,177.233810 368.179413,180.228470 365.457611,182.432953 
	C363.961670,176.775192 362.400330,171.530472 361.256104,166.196274 
	C360.836670,164.240982 362.211853,162.383133 363.300354,160.688065 
	C364.018372,159.569946 364.946198,158.542114 365.444031,157.335220 
	C367.051575,153.437988 364.946472,147.895782 361.993958,148.448288 
	C351.118958,150.483337 339.742157,150.554749 329.081299,156.574188 
M263.907898,282.410645 
	C266.534180,281.865845 267.292786,283.874451 268.340729,285.580658 
	C271.017487,289.938812 277.668640,291.874542 282.325439,289.705109 
	C286.036316,287.976379 287.387177,283.286011 285.174835,277.855225 
	C283.581482,273.943817 282.639008,269.940613 282.011841,265.828064 
	C281.537476,262.717499 282.909943,259.379730 281.392822,256.452698 
	C279.933929,253.638062 280.444458,252.116272 283.467102,251.306961 
	C285.282532,250.820892 286.331116,249.573883 286.324585,247.682419 
	C286.318115,245.811172 284.641541,245.289459 283.352783,244.684982 
	C282.020721,244.060196 280.524628,243.534302 279.073273,243.454117 
	C266.794312,242.775681 256.335785,246.329651 249.334610,257.072174 
	C246.471573,261.465149 245.453949,266.433929 245.151703,271.748657 
	C244.918076,275.856781 247.235657,277.691833 249.779129,279.802246 
	C250.130386,280.093689 250.243362,280.673401 250.464111,281.120880 
	C254.242264,288.779602 255.339172,289.005127 262.018219,283.514099 
	C262.402222,283.198395 262.839386,282.947388 263.907898,282.410645 
M277.165222,347.333130 
	C269.875153,337.994446 273.356995,322.927338 283.770050,320.262329 
	C286.796051,319.487885 287.343750,318.228027 287.633545,315.911407 
	C275.672791,309.365082 258.113342,316.633850 252.886307,327.895355 
	C250.249283,333.576752 251.396454,339.291504 251.408020,345.043488 
	C251.432709,357.307678 260.916840,370.903809 272.714355,374.172791 
	C281.354095,376.566833 285.678314,375.362396 283.061310,365.509491 
	C282.766022,364.397675 283.025665,363.116241 282.639679,362.054596 
	C280.922394,357.331238 282.250366,351.555573 277.165222,347.333130 
M378.672058,417.015137 
	C381.638550,422.201691 382.498505,428.016754 383.146729,433.768890 
	C383.586823,437.673859 385.202087,438.247437 388.391571,437.079529 
	C389.642151,436.621582 390.907074,436.202698 392.156250,435.741180 
	C404.121765,431.320312 417.415558,413.932648 410.485138,399.059143 
	C407.748016,393.184875 405.219604,391.322174 398.849060,392.612305 
	C396.034515,393.182281 393.213348,393.637146 390.434753,393.287842 
	C384.154297,392.498322 379.448456,394.400543 375.253387,399.384033 
	C370.581726,404.933716 370.139618,405.561035 374.583252,411.064117 
	C375.936798,412.740417 377.085693,414.582062 378.672058,417.015137 
M299.324768,408.512665 
	C300.033112,404.581604 294.115570,393.896851 290.364044,392.642792 
	C289.356232,392.305908 288.087524,392.577026 286.971527,392.764801 
	C280.478302,393.857544 274.044373,394.028473 267.922821,391.170715 
	C264.782410,389.704651 262.882904,390.810181 261.428864,393.578705 
	C256.009155,403.897522 259.884766,423.175720 268.859589,430.471375 
	C274.374084,434.954132 282.819794,433.942627 285.431274,427.905396 
	C288.599731,420.580536 292.728241,414.178223 299.324768,408.512665 
M455.539368,330.931519 
	C459.868073,320.547791 451.309875,305.340271 443.366943,299.425507 
	C441.696960,298.181915 439.595947,297.449249 437.939514,299.265625 
	C435.150146,302.324341 432.603424,305.606018 429.991241,308.823669 
	C429.162323,309.844757 429.275604,310.963257 429.928345,312.069275 
	C435.388123,321.320587 438.814545,331.219879 440.226166,341.922760 
	C440.809753,346.347443 443.769012,347.014618 447.378479,344.086578 
	C451.382538,340.838409 453.705261,336.495636 455.539368,330.931519 
M433.369934,368.767975 
	C430.573395,372.688568 428.427399,377.074219 424.931427,380.495667 
	C422.398102,382.974976 423.441559,385.590210 424.537567,388.327850 
	C425.616821,391.023682 427.126617,392.583527 430.257416,393.054199 
	C441.948883,394.811890 451.146423,383.203430 447.110138,372.549316 
	C444.925629,366.783112 438.960083,364.548035 433.369934,368.767975 
M230.178955,294.159760 
	C220.359070,296.087738 212.014099,307.862946 212.247772,319.415649 
	C212.299774,321.986542 212.256470,324.659973 215.451096,325.396606 
	C218.520508,326.104370 220.542419,324.358551 221.957489,321.890717 
	C222.957458,320.146851 223.807251,318.349701 225.673798,317.318207 
	C234.063339,312.681915 231.808212,304.239929 232.818619,297.003998 
	C232.967529,295.937531 232.110184,294.801392 230.178955,294.159760 
M235.080627,376.045197 
	C235.028122,374.557281 234.745041,373.034180 234.965530,371.587891 
	C235.682144,366.887451 232.476685,366.233276 229.106812,365.523926 
	C225.537216,364.772583 222.771332,365.622772 221.636169,369.315735 
	C219.355896,376.734039 218.490204,382.355164 229.754547,386.909668 
	C230.726257,383.139587 236.977448,382.351074 235.080627,376.045197 
z"/>
</svg>